<svg width="248" height="144" viewBox="0 0 248 144" fill="none" xmlns="http://www.w3.org/2000/svg">
<rect x="0.979492" y="1.46289" width="141.824" height="141.824" rx="70.9121" fill="#121212" stroke="#F4F4F4"/>
<rect x="31.3213" y="23.2324" width="82.3304" height="82.5442" rx="41.1652" fill="#F4F4F4"/>
<path d="M71.8918 22.1973C48.2337 22.1973 29.0459 41.3815 29.0459 65.0432C29.0459 83.9739 41.3212 100.034 58.3489 105.7C60.4876 106.097 61.1803 104.768 61.1803 103.64V95.6637C49.262 98.2559 46.7805 90.6079 46.7805 90.6079C44.831 85.6556 42.0211 84.3381 42.0211 84.3381C38.1328 81.6781 42.3174 81.7352 42.3174 81.7352C46.6199 82.0351 48.8835 86.1519 48.8835 86.1519C52.704 92.7002 58.9059 90.8078 61.3517 89.7117C61.7337 86.9445 62.8442 85.0522 64.0724 83.9846C54.5571 82.8956 44.5525 79.2216 44.5525 62.808C44.5525 58.1271 46.2271 54.3067 48.9657 51.3075C48.5229 50.2256 47.0555 45.866 49.3834 39.9676C49.3834 39.9676 52.9825 38.8179 61.1696 44.3593C64.5866 43.4095 68.2499 42.9347 71.8918 42.9168C75.5337 42.9347 79.2006 43.4095 82.6247 44.3593C90.8047 38.8179 94.3966 39.9676 94.3966 39.9676C96.7281 45.8696 95.2606 50.2292 94.8179 51.3075C97.5672 54.3067 99.2275 58.1307 99.2275 62.808C99.2275 79.2644 89.2051 82.8885 79.6647 83.9489C81.2001 85.2771 82.6033 87.8836 82.6033 91.8825V103.64C82.6033 104.779 83.2888 106.118 85.4632 105.697C102.477 100.023 114.738 83.9668 114.738 65.0432C114.738 41.3815 95.5534 22.1973 71.8918 22.1973Z" fill="#121212"/>
<rect x="105.942" y="2.66073" width="139.429" height="139.429" rx="69.7143" fill="#F4F4F4" stroke="#F4F4F4" stroke-width="3.39568"/>
<path d="M156.621 91.4113L194.694 53.3359M194.694 53.3359H174.57M194.694 53.3359V71.8291" stroke="black" stroke-width="3.39568"/>
</svg>
